# xmcd
#
# Track frame offsets:
#	150
#	20122
#	36596
#	56153
#	75041
#	101602
#	119699
#	140923
#	154858
#	178842
#
# Disc length: 2582 seconds
#
# Revision: 1
# Processed by: cddbd v1.5PL3 Copyright (c) Steve Scherf et al.
# Submitted via: CDex 1.50Beta5
#
DISCID=8f0a140a
DTITLE=笠原弘子 - True Chair
DYEAR=2001
DGENRE=Pop
TTITLE0=白いソファー
TTITLE1=人生お好み食堂
TTITLE2=幸せって
TTITLE3=あ〜あ
TTITLE4=あの頃
TTITLE5=goes by
TTITLE6=ゆらゆら
TTITLE7=忘れないように
TTITLE8=お夜食のお約束
TTITLE9=真実の椅子
EXTD=
EXTT0=
EXTT1=
EXTT2=
EXTT3=
EXTT4=
EXTT5=
EXTT6=
EXTT7=
EXTT8=
EXTT9=
PLAYORDER=
